<svg fill="#000000" xmlns="http://www.w3.org/2000/svg"  viewBox="0 0 32 32" width="32px" height="32px"><path fill="none" stroke="#000000" stroke-linecap="round" stroke-linejoin="round" stroke-miterlimit="10" stroke-width="2" d="M20.089,16c2.15,0,3.368-1.105,3.674-1.289c-0.404-0.526-0.609-1.164-0.671-1.846c-0.191-2.11,1.002-3.096,1.002-3.096s1.737,0.985,2.153,3.175c2.298-0.629,3.712,0.535,3.712,0.535s-0.719,2.521-4.365,2.383c-2.477,6.158-7.778,9.164-14.302,9.164c-7.023,0-9.333-5.104-9.333-8.293C1.96,16.156,2.078,16,2.078,16S17.767,16,20.089,16z"/><path d="M10.71 19.203c.075 0 .146.014.211.04-.071.041-.119.118-.119.206 0 .131.107.238.238.238.09 0 .169-.05.209-.123.029.069.044.144.044.223 0 .321-.261.582-.583.582-.322 0-.583-.261-.583-.582C10.127 19.464 10.388 19.203 10.71 19.203M1 19h29.083c-.634-.16-2.004-.377-1.777-1.205-1.152 1.33-3.928.933-4.629.277-.781 1.13-5.324.701-5.64-.18-.978 1.146-4.01 1.146-4.989 0-.317.88-4.86 1.31-5.641.18-.701.656-3.477 1.053-4.629-.277C3.004 18.623 1.634 18.84 1 19"/><path fill="none" stroke="#000000" stroke-miterlimit="10" stroke-width="2" d="M4 13H7.005V16H4z"/><path fill="none" stroke="#000000" stroke-miterlimit="10" stroke-width="2" d="M7 13H10.004999999999999V16H7z"/><path fill="none" stroke="#000000" stroke-miterlimit="10" stroke-width="2" d="M10 13H13.004999999999999V16H10z"/><path fill="none" stroke="#000000" stroke-miterlimit="10" stroke-width="2" d="M13 13H16.005V16H13zM7 10H10.004999999999999V13H7z"/><path fill="none" stroke="#000000" stroke-miterlimit="10" stroke-width="2" d="M10 10H13.004999999999999V13H10z"/><path fill="none" stroke="#000000" stroke-miterlimit="10" stroke-width="2" d="M13 10H16.005V13H13zM13 7H16.005V10H13zM16 13H19.005V16H16z"/><path fill="none" stroke="#000000" stroke-linecap="round" stroke-linejoin="round" stroke-miterlimit="10" stroke-width="2" d="M9.072,20.813c0,0-2.678,0.934-5.772,0.398"/></svg>