<svg fill="#000000" xmlns="http://www.w3.org/2000/svg"  viewBox="0 0 32 32" width="32px" height="32px"><path d="M17.582,5.996C17.582,5.996,17.582,5.996,17.582,5.996C17.582,5.996,17.582,5.996,17.582,5.996 M17.581,5.996C21.946,6.065,23,8.614,23,10c-1.257,0.105-2.306,0.159-2.77,0.898c-1.059,1.687-0.266,4.538,0.478,5.822c0.08,0.138,0.946,0.957,1.292,1.28c0.126,0.118-0.46,0.276-0.58,0.4c-0.335,0.348-0.33,1.401-0.4,2.587C21.007,20.995,21,21,21,21s0.005,0.11,0.011,0.261C21.008,21.374,21,21.477,21,21.6v2.016C21,26.124,19.603,27,18.438,27c-1.237,0-2.302-1.01-2.302-1.867c0-0.503-0.081-1.362-0.136-2.133c0.013-1.777,0-2.422,0-3c0-0.559-1-1-1-1c0.125-0.292,0.53-0.892,0.53-0.892C15.834,17.351,15.994,16.631,16,15c0.003-0.746-0.098-1.56-0.309-2.491C15.403,11.24,14.44,10.01,13,10c-0.009,0-0.018,0-0.027,0c-0.585,0-0.515,0-0.973,0C12,8,14.665,5.996,17.581,5.996 M17.581,5.996C17.581,5.996,17.581,5.996,17.581,5.996C17.581,5.996,17.581,5.996,17.581,5.996 M17.581,3.996C13.543,3.996,10,6.802,10,10c0,1.105,0.895,2,2,2l0.42,0l0.553,0c0.385,0.003,0.678,0.558,0.767,0.951c0.177,0.781,0.262,1.449,0.26,2.041c-0.005,1.271-0.111,1.784-0.259,2.194c-0.192,0.295-0.441,0.702-0.58,1.026c-0.404,0.942-0.028,2.024,0.842,2.522c0.003,0.482,0.005,1.145-0.003,2.251c0,0.052,0.001,0.105,0.005,0.157l0.048,0.637c0.041,0.522,0.083,1.062,0.083,1.353c0,2.024,2.051,3.867,4.302,3.867C20.635,29,23,27.315,23,23.616V21.6c0-0.048,0.003-0.091,0.004-0.134l0.006-0.144c0.001-0.045,0.001-0.089,0-0.134c0.003-0.028,0.005-0.056,0.007-0.085l0.029-0.548c0.012-0.25,0.028-0.554,0.048-0.802c0.375-0.261,0.784-0.69,0.898-1.392c0.107-0.659-0.14-1.369-0.628-1.824c-0.401-0.373-0.816-0.774-1.008-0.97c-0.514-0.993-0.819-2.632-0.52-3.425c0.273-0.061,0.776-0.103,1.163-0.135l0.168-0.014C24.203,11.907,25,11.04,25,10c0-2.036-1.544-5.911-7.387-6.003C17.602,3.997,17.592,3.996,17.581,3.996L17.581,3.996z"/><path d="M9.325 4.994c1.339 0 2.361.294 3.271.636-2.15 1.019-2.595 3.163-2.595 5.369 0 .002.001.004.001.006 0 .005-.002.009-.002.014-.001.088.029.247.029.462C10.029 12.5 10 14.71 10 16c0 2.201 2.352 4.003 2.962 4.003.014 0 .026-.001.038-.003-1.167.667-2.917 1-3.999 1C6.347 21 5.086 11.638 5 10 4.771 5.636 6.646 5.082 9 5 9.111 4.996 9.219 4.994 9.325 4.994M9.325 2.994C9.325 2.994 9.324 2.994 9.325 2.994c-.13 0-.261.002-.395.007-1.517.053-3.237.292-4.5 1.67-1.09 1.189-1.557 2.967-1.428 5.433.047.888.388 3.76 1.098 6.51C4.809 19.355 6.088 23 9.001 23c1.384 0 3.465-.391 4.992-1.263.837-.478 1.214-1.486.896-2.396-.242-.693-.835-1.18-1.525-1.308C12.93 17.757 12 16.831 12 16c0-.678.008-1.613.016-2.492.007-.794.013-1.543.013-2.026 0-.203-.015-.374-.028-.51 0-.009 0-.017-.001-.026.01-2.482.703-3.153 1.452-3.508.726-.344 1.175-1.088 1.142-1.89C14.561 4.745 14.051 4.04 13.3 3.758 12.353 3.402 11.046 2.994 9.325 2.994L9.325 2.994zM22.605 4.972c.985 0 2.925.199 3.893 1.654C27.713 8.455 26.542 18.417 23 19c.917-.292 1.833-.292 2-3 0-.833-.046-3.619 0-4 .063-.518.019-1.448 0-2 .015-.073.014-.152.014-.245C25.014 6.912 22 5 22 5S22.235 4.972 22.605 4.972M22.605 2.972c-.464 0-.781.035-.84.042-.84.1-1.527.717-1.715 1.542-.188.825.164 1.679.879 2.132.011.008 2.085 1.404 2.085 3.066 0 0 0 .005 0 .011-.012.1-.016.202-.012.303l.007.194c.014.386.044 1.189.007 1.494-.04.325-.044.948-.023 3.176C22.996 15.379 23 15.767 23 16c0 .577.171.927 0 1l-.75 1.5c-.154.308-.209.657-.158.999C22.205 20.266 22.25 21 22.997 21c.108 0 .218-.009.328-.027 1.19-.196 2.873-1.038 4.133-3.933 1.489-3.423 2.107-9.412.704-11.521C26.689 3.303 24.048 2.972 22.605 2.972L22.605 2.972z"/><path d="M26.36 20.126c-1.501.359-2.223.168-2.573-.082-.056.047-2.85-.625-1.788 2 .047.01 1.384-.004 1.384-.004.744.039 1.717-.202 2.288-.51C26.902 20.867 27.573 19.836 26.36 20.126zM13.878 12.71C13.675 12.891 13.354 13.049 13 13c-.576-.08-1.018-.68-.987-.904h0c.03-.224.523-.341 1.099-.261.2.028.382.077.535.137C14.056 12.149 14.102 12.441 13.878 12.71zM21.133 12.701c.203.181.525.34.878.29.576-.08 1.018-.68.987-.904h0c-.03-.224-.523-.341-1.099-.261-.2.028-.382.077-.535.137C20.956 12.14 20.909 12.432 21.133 12.701zM18 4c0 0 1.125-1 4-1s-1 2-1 2S18.688 4.688 18 4zM16 5c0 0-2.417-2-7-2v1l5 2L16 5z"/></svg>