<svg fill="#000000" xmlns="http://www.w3.org/2000/svg"  viewBox="0 0 32 32" width="32px" height="32px"><path fill="#000000" d="M22.6,20.2c-1.8,0.4-2.3,1.5-4.9,2.2c0,0-0.1,0.2-0.5,0.3c-0.6,0.2-3,0.3-3.2,0.3c-0.6,0-0.9-0.2-1-0.4 c-0.3-0.7,0.4-1,0.4-1c-0.4-0.2-0.4-0.5-0.5-0.4c-0.1,0.3-0.2,0.9-0.5,1.2c-0.4,0.4-1.2,0.3-1.7,0c-0.5-0.2,0-0.8,0-0.9 c-0.1,0-0.3,0.1-0.5-0.2c-0.3-0.4-0.8-1.8,0.5-2.9c-0.1-0.5-0.2-2.5,1.9-4c0,0-1-1.1-0.6-2c0.2-0.6,0.3-0.6,0.4-0.7 c0.3-0.1,0.5-0.2,0.7-0.4c1-1,2.2-0.8,2.2-0.8s0.6-1.8,1.1-1.4c0.2,0.1,0.8,1.4,0.8,1.4s0.6-0.4,0.7-0.2c0.4,0.7,0.4,2.2,0.3,3.1 c-0.3,1.4-1,2.2-1.3,2.7c-0.1,0.1,0.8,0.5,1.3,1.9c0.5,1.3,0,2.5,0.1,2.6c0,0.1,0.7,0,1.7-0.6c0.6-0.4,1.3-0.8,2.1-0.8 C23.2,19.1,23.2,20.1,22.6,20.2z"/><path fill="#000000" d="M16,29C8.8,29,3,23.2,3,16S8.8,3,16,3s13,5.8,13,13S23.2,29,16,29z M16,5C9.9,5,5,9.9,5,16s4.9,11,11,11 s11-4.9,11-11S22.1,5,16,5z"/></svg>